<svg xmlns="http://www.w3.org/2000/svg" xmlns:xlink="http://www.w3.org/1999/xlink" xmlns:lucid="lucid" width="1760" height="1360"><g transform="translate(0 0)" lucid:page-tab-id="ya-NSy7QueAk"><path d="M400 300h60v50h-60z" fill="none"/><use xlink:href="#a" transform="matrix(1,0,0,1,400,300) translate(0 29.444444444444443)"/><path d="M800 166c0-3.3 2.7-6 6-6h128c3.3 0 6 2.7 6 6v68c0 3.3-2.7 6-6 6H806c-3.3 0-6-2.7-6-6z" stroke="#5e5e5e" stroke-width="3" fill="#99d2f2"/><use xlink:href="#b" transform="matrix(1,0,0,1,812,172) translate(0.037037037037030984 31.77777777777778)"/><path d="M540 286c0-3.3 2.7-6 6-6h128c3.3 0 6 2.7 6 6v68c0 3.3-2.7 6-6 6H546c-3.3 0-6-2.7-6-6z" stroke="#5e5e5e" stroke-width="3" fill="#99d2f2"/><use xlink:href="#c" transform="matrix(1,0,0,1,552,292) translate(25.345679012345684 31.77777777777778)"/><path d="M1060 286c0-3.3 2.7-6 6-6h128c3.3 0 6 2.7 6 6v68c0 3.3-2.7 6-6 6h-128c-3.3 0-6-2.7-6-6z" stroke="#5e5e5e" stroke-width="3" fill="#99d2f2"/><use xlink:href="#d" transform="matrix(1,0,0,1,1072,292) translate(15.53086419753086 31.77777777777778)"/><path d="M800 406c0-3.3 2.7-6 6-6h128c3.3 0 6 2.7 6 6v68c0 3.3-2.7 6-6 6H806c-3.3 0-6-2.7-6-6z" stroke="#5e5e5e" stroke-width="3" fill="#99d2f2"/><use xlink:href="#e" transform="matrix(1,0,0,1,812,412) translate(12.969135802469125 17.77777777777778)"/><use xlink:href="#f" transform="matrix(1,0,0,1,812,412) translate(25.99382716049383 44.44444444444444)"/><path d="M610.02 277.5l.06-2.78.22-3.5.34-3.27.45-3.07.54-2.9.65-2.72.7-2.6.82-2.48.88-2.38.96-2.3 1.04-2.2 1.12-2.13 1.2-2.07 1.28-2.03 1.37-1.97 1.47-1.94 1.58-1.9 1.7-1.9 1.8-1.84 1.97-1.84 2.1-1.83 2.3-1.82 2.5-1.82 2.74-1.8 3-1.82 3.32-1.82 3.68-1.82 4.1-1.84 4.65-1.83 5.28-1.84 6.07-1.83 7.1-1.82 8.4-1.78 10.2-1.7 12.8-1.62 17-1.4 26.26-1.05 28.3-.14" stroke="#5e5e5e" stroke-width="2" fill="none"/><path d="M611.02 277.5l-.02 1h-2l.02-1.05z" stroke="#5e5e5e" stroke-width=".05" fill="#5e5e5e"/><path d="M795.26 200.02l-14.24 4.7-.04-9.27z" stroke="#5e5e5e" stroke-width="2" fill="#5e5e5e"/><path d="M1129.98 277.5l-.06-2.78-.22-3.5-.34-3.27-.45-3.07-.54-2.9-.65-2.72-.7-2.6-.82-2.48-.88-2.38-.96-2.3-1.04-2.2-1.12-2.13-1.2-2.07-1.28-2.03-1.37-1.97-1.47-1.94-1.58-1.9-1.7-1.9-1.8-1.84-1.97-1.84-2.1-1.83-2.3-1.82-2.5-1.82-2.74-1.8-3-1.82-3.32-1.82-3.68-1.82-4.1-1.84-4.65-1.83-5.28-1.84-6.07-1.83-7.1-1.82-8.4-1.78-10.2-1.7-12.8-1.62-17-1.4-26.26-1.05-28.3-.14" stroke="#5e5e5e" stroke-width="2" fill="none"/><path d="M1131 278.5h-2l-.02-1 2-.05z" stroke="#5e5e5e" stroke-width=".05" fill="#5e5e5e"/><path d="M944.74 200.02l14.28-4.57-.04 9.27z" stroke="#5e5e5e" stroke-width="2" fill="#5e5e5e"/><path d="M870 397.5V260" stroke="#5e5e5e" stroke-width="2" fill="none"/><path d="M871 398.5h-2v-1.03h2z" stroke="#5e5e5e" stroke-width=".05" fill="#5e5e5e"/><path d="M870 244.74l4.64 14.26h-9.28z" stroke="#5e5e5e" stroke-width="2" fill="#5e5e5e"/><path d="M942.5 440l60.8-.7 20.46-1.25 14.6-1.52 11.37-1.67 9.22-1.75 7.7-1.8 6.55-1.82 5.66-1.83 4.94-1.84 4.37-1.82 3.9-1.83 3.48-1.82 3.15-1.82 2.86-1.8 2.6-1.82 2.4-1.82 2.2-1.82 2.05-1.83 1.9-1.84 1.75-1.87 1.63-1.9 1.53-1.92 1.43-1.96 1.33-2 1.24-2.05 1.15-2.1 1.08-2.17 1-2.25.92-2.33.85-2.43.76-2.54.57-2.22" stroke="#5e5e5e" stroke-width="2" fill="none"/><path d="M942.54 441h-1.04v-2h1.02z" stroke="#5e5e5e" stroke-width=".05" fill="#5e5e5e"/><path d="M1129.64 364.72l3 14.7-9.2-1.05z" stroke="#5e5e5e" stroke-width="2" fill="#5e5e5e"/><path d="M797.5 440l-60.8-.7-20.46-1.25-14.6-1.52-11.37-1.67-9.22-1.75-7.7-1.8-6.55-1.82-5.66-1.83-4.94-1.84-4.37-1.82-3.9-1.83-3.48-1.82-3.15-1.82-2.86-1.8-2.6-1.82-2.4-1.82-2.2-1.82-2.05-1.83-1.9-1.84-1.75-1.87-1.63-1.9-1.53-1.92-1.43-1.96-1.33-2-1.24-2.05-1.15-2.1-1.08-2.17-1-2.25-.92-2.33-.85-2.43-.76-2.54-.57-2.22" stroke="#5e5e5e" stroke-width="2" fill="none"/><path d="M798.5 439v2h-1.04l.02-2z" stroke="#5e5e5e" stroke-width=".05" fill="#5e5e5e"/><path d="M610.36 364.72l6.2 13.65-9.2 1.04z" stroke="#5e5e5e" stroke-width="2" fill="#5e5e5e"/><path d="M700 320h340" stroke="#5e5e5e" stroke-width="2" fill="none"/><path d="M684.74 320l14.26-4.64v9.28zM1055.26 320l-14.26 4.64v-9.28z" stroke="#5e5e5e" stroke-width="2" fill="#5e5e5e"/><path d="M400 420h60v50h-60z" fill="none"/><use xlink:href="#g" transform="matrix(1,0,0,1,400,420) translate(0 29.444444444444443)"/><path d="M400 180h60v50h-60z" fill="none"/><use xlink:href="#h" transform="matrix(1,0,0,1,400,180) translate(0 29.444444444444443)"/><path d="M401 260h4.03m8.06 0h8.04m8.06 0h8.06m8.06 0h8.05m8.06 0h8.06m8.05 0h8.06m8.06 0h8.06m8.06 0h8.06m8.05 0h8.05m8.06 0h8.07m8.05 0h8.06m8.06 0h8.06m8.06 0h8.05m8.07 0h8.06m8.06 0h8.04m8.06 0h8.06m8.06 0h8.05m8.06 0H679m8.05 0h8.06m8.06 0h8.06m8.06 0h8.06m8.05 0h8.05m8.06 0h8.07m8.05 0h8.06m8.06 0h8.06m8.06 0h8.05m8.07 0h8.06m8.06 0h8.04m8.06 0h8.06m8.06 0h8.05m8.06 0h8.06m8.05 0h8.06m8.06 0h8.06m8.06 0h8.06m8.05 0h8.05m8.06 0h8.07m8.05 0h8.06m8.06 0h8.06m8.06 0h8.05m8.07 0h8.06m8.06 0h8.04m8.06 0h8.06m8.06 0h8.05m8.06 0h8.06m8.05 0h8.06m8.06 0h8.06m8.06 0h8.06m8.05 0h8.05m8.06 0h8.07m8.05 0h8.06m8.06 0h8.06m8.06 0h8.05m8.07 0h4.03M401.03 260H400M1238.97 260h1.03M401 380h4.03m8.06 0h8.04m8.06 0h8.06m8.06 0h8.05m8.06 0h8.06m8.05 0h8.06m8.06 0h8.06m8.06 0h8.06m8.05 0h8.05m8.06 0h8.07m8.05 0h8.06m8.06 0h8.06m8.06 0h8.05m8.07 0h8.06m8.06 0h8.04m8.06 0h8.06m8.06 0h8.05m8.06 0H679m8.05 0h8.06m8.06 0h8.06m8.06 0h8.06m8.05 0h8.05m8.06 0h8.07m8.05 0h8.06m8.06 0h8.06m8.06 0h8.05m8.07 0h8.06m8.06 0h8.04m8.06 0h8.06m8.06 0h8.05m8.06 0h8.06m8.05 0h8.06m8.06 0h8.06m8.06 0h8.06m8.05 0h8.05m8.06 0h8.07m8.05 0h8.06m8.06 0h8.06m8.06 0h8.05m8.07 0h8.06m8.06 0h8.04m8.06 0h8.06m8.06 0h8.05m8.06 0h8.06m8.05 0h8.06m8.06 0h8.06m8.06 0h8.06m8.05 0h8.05m8.06 0h8.07m8.05 0h8.06m8.06 0h8.06m8.06 0h8.05m8.07 0h4.03M401.03 380H400M1238.97 380h1.03" stroke="#5e5e5e" stroke-width="2" fill="none"/><defs><path fill="#333" d="M63-220v92h138v28H63V0H30v-248h175v28H63" id="i"/><path fill="#333" d="M100-194c62-1 85 37 85 99 1 63-27 99-86 99S16-35 15-95c0-66 28-99 85-99zM99-20c44 1 53-31 53-75 0-43-8-75-51-75s-53 32-53 75 10 74 51 75" id="j"/><path fill="#333" d="M114-163C36-179 61-72 57 0H25l-1-190h30c1 12-1 29 2 39 6-27 23-49 58-41v29" id="k"/><path fill="#333" d="M210-169c-67 3-38 105-44 169h-31v-121c0-29-5-50-35-48C34-165 62-65 56 0H25l-1-190h30c1 10-1 24 2 32 10-44 99-50 107 0 11-21 27-35 58-36 85-2 47 119 55 194h-31v-121c0-29-5-49-35-48" id="l"/><g id="a"><use transform="matrix(0.06172839506172839,0,0,0.06172839506172839,0,0)" xlink:href="#i"/><use transform="matrix(0.06172839506172839,0,0,0.06172839506172839,13.518518518518517,0)" xlink:href="#j"/><use transform="matrix(0.06172839506172839,0,0,0.06172839506172839,25.864197530864196,0)" xlink:href="#k"/><use transform="matrix(0.06172839506172839,0,0,0.06172839506172839,33.20987654320987,0)" xlink:href="#l"/></g><path fill="#333" d="M233-177c-1 41-23 64-60 70L243 0h-38l-65-103H63V0H30v-248c88 3 205-21 203 71zM63-129c60-2 137 13 137-47 0-61-80-42-137-45v92" id="m"/><path fill="#333" d="M100-194c63 0 86 42 84 106H49c0 40 14 67 53 68 26 1 43-12 49-29l28 8c-11 28-37 45-77 45C44 4 14-33 15-96c1-61 26-98 85-98zm52 81c6-60-76-77-97-28-3 7-6 17-6 28h103" id="n"/><path fill="#333" d="M135-143c-3-34-86-38-87 0 15 53 115 12 119 90S17 21 10-45l28-5c4 36 97 45 98 0-10-56-113-15-118-90-4-57 82-63 122-42 12 7 21 19 24 35" id="o"/><path fill="#333" d="M115-194c55 1 70 41 70 98S169 2 115 4C84 4 66-9 55-30l1 105H24l-1-265h31l2 30c10-21 28-34 59-34zm-8 174c40 0 45-34 45-75s-6-73-45-74c-42 0-51 32-51 76 0 43 10 73 51 73" id="p"/><path fill="#333" d="M117-194c89-4 53 116 60 194h-32v-121c0-31-8-49-39-48C34-167 62-67 57 0H25l-1-190h30c1 10-1 24 2 32 11-22 29-35 61-36" id="q"/><path fill="#333" d="M24-231v-30h32v30H24zM24 0v-190h32V0H24" id="r"/><path fill="#333" d="M108 0H70L1-190h34L89-25l56-165h34" id="s"/><g id="b"><use transform="matrix(0.06172839506172839,0,0,0.06172839506172839,0,0)" xlink:href="#m"/><use transform="matrix(0.06172839506172839,0,0,0.06172839506172839,15.987654320987653,0)" xlink:href="#n"/><use transform="matrix(0.06172839506172839,0,0,0.06172839506172839,28.333333333333332,0)" xlink:href="#o"/><use transform="matrix(0.06172839506172839,0,0,0.06172839506172839,39.44444444444444,0)" xlink:href="#p"/><use transform="matrix(0.06172839506172839,0,0,0.06172839506172839,51.79012345679012,0)" xlink:href="#j"/><use transform="matrix(0.06172839506172839,0,0,0.06172839506172839,64.1358024691358,0)" xlink:href="#q"/><use transform="matrix(0.06172839506172839,0,0,0.06172839506172839,76.48148148148148,0)" xlink:href="#o"/><use transform="matrix(0.06172839506172839,0,0,0.06172839506172839,87.5925925925926,0)" xlink:href="#r"/><use transform="matrix(0.06172839506172839,0,0,0.06172839506172839,92.46913580246914,0)" xlink:href="#s"/><use transform="matrix(0.06172839506172839,0,0,0.06172839506172839,103.58024691358025,0)" xlink:href="#n"/></g><path fill="#333" d="M30 0v-248h187v28H63v79h144v27H63v87h162V0H30" id="t"/><path fill="#333" d="M24 0v-261h32V0H24" id="u"/><path fill="#333" d="M141-36C126-15 110 5 73 4 37 3 15-17 15-53c-1-64 63-63 125-63 3-35-9-54-41-54-24 1-41 7-42 31l-33-3c5-37 33-52 76-52 45 0 72 20 72 64v82c-1 20 7 32 28 27v20c-31 9-61-2-59-35zM48-53c0 20 12 33 32 33 41-3 63-29 60-74-43 2-92-5-92 41" id="v"/><path fill="#333" d="M59-47c-2 24 18 29 38 22v24C64 9 27 4 27-40v-127H5v-23h24l9-43h21v43h35v23H59v120" id="w"/><path fill="#333" d="M96-169c-40 0-48 33-48 73s9 75 48 75c24 0 41-14 43-38l32 2c-6 37-31 61-74 61-59 0-76-41-82-99-10-93 101-131 147-64 4 7 5 14 7 22l-32 3c-4-21-16-35-41-35" id="x"/><g id="c"><use transform="matrix(0.06172839506172839,0,0,0.06172839506172839,0,0)" xlink:href="#t"/><use transform="matrix(0.06172839506172839,0,0,0.06172839506172839,14.814814814814813,0)" xlink:href="#u"/><use transform="matrix(0.06172839506172839,0,0,0.06172839506172839,19.691358024691354,0)" xlink:href="#v"/><use transform="matrix(0.06172839506172839,0,0,0.06172839506172839,32.03703703703703,0)" xlink:href="#o"/><use transform="matrix(0.06172839506172839,0,0,0.06172839506172839,43.14814814814814,0)" xlink:href="#w"/><use transform="matrix(0.06172839506172839,0,0,0.06172839506172839,49.32098765432098,0)" xlink:href="#r"/><use transform="matrix(0.06172839506172839,0,0,0.06172839506172839,54.197530864197525,0)" xlink:href="#x"/></g><g id="d"><use transform="matrix(0.06172839506172839,0,0,0.06172839506172839,0,0)" xlink:href="#m"/><use transform="matrix(0.06172839506172839,0,0,0.06172839506172839,15.987654320987653,0)" xlink:href="#n"/><use transform="matrix(0.06172839506172839,0,0,0.06172839506172839,28.333333333333332,0)" xlink:href="#o"/><use transform="matrix(0.06172839506172839,0,0,0.06172839506172839,39.44444444444444,0)" xlink:href="#r"/><use transform="matrix(0.06172839506172839,0,0,0.06172839506172839,44.32098765432099,0)" xlink:href="#u"/><use transform="matrix(0.06172839506172839,0,0,0.06172839506172839,49.19753086419753,0)" xlink:href="#r"/><use transform="matrix(0.06172839506172839,0,0,0.06172839506172839,54.074074074074076,0)" xlink:href="#v"/><use transform="matrix(0.06172839506172839,0,0,0.06172839506172839,66.41975308641976,0)" xlink:href="#q"/><use transform="matrix(0.06172839506172839,0,0,0.06172839506172839,78.76543209876544,0)" xlink:href="#w"/></g><path fill="#333" d="M240 0l2-218c-23 76-54 145-80 218h-23L58-218 59 0H30v-248h44l77 211c21-75 51-140 76-211h43V0h-30" id="y"/><path fill="#333" d="M177-190C167-65 218 103 67 71c-23-6-38-20-44-43l32-5c15 47 100 32 89-28v-30C133-14 115 1 83 1 29 1 15-40 15-95c0-56 16-97 71-98 29-1 48 16 59 35 1-10 0-23 2-32h30zM94-22c36 0 50-32 50-73 0-42-14-75-50-75-39 0-46 34-46 75s6 73 46 73" id="z"/><g id="e"><use transform="matrix(0.06172839506172839,0,0,0.06172839506172839,0,0)" xlink:href="#y"/><use transform="matrix(0.06172839506172839,0,0,0.06172839506172839,18.456790123456788,0)" xlink:href="#n"/><use transform="matrix(0.06172839506172839,0,0,0.06172839506172839,30.80246913580247,0)" xlink:href="#o"/><use transform="matrix(0.06172839506172839,0,0,0.06172839506172839,41.91358024691358,0)" xlink:href="#o"/><use transform="matrix(0.06172839506172839,0,0,0.06172839506172839,53.0246913580247,0)" xlink:href="#v"/><use transform="matrix(0.06172839506172839,0,0,0.06172839506172839,65.37037037037038,0)" xlink:href="#z"/><use transform="matrix(0.06172839506172839,0,0,0.06172839506172839,77.71604938271606,0)" xlink:href="#n"/></g><path fill="#333" d="M30-248c118-7 216 8 213 122C240-48 200 0 122 0H30v-248zM63-27c89 8 146-16 146-99s-60-101-146-95v194" id="A"/><g id="f"><use transform="matrix(0.06172839506172839,0,0,0.06172839506172839,0,0)" xlink:href="#A"/><use transform="matrix(0.06172839506172839,0,0,0.06172839506172839,15.987654320987653,0)" xlink:href="#k"/><use transform="matrix(0.06172839506172839,0,0,0.06172839506172839,23.333333333333332,0)" xlink:href="#r"/><use transform="matrix(0.06172839506172839,0,0,0.06172839506172839,28.209876543209873,0)" xlink:href="#s"/><use transform="matrix(0.06172839506172839,0,0,0.06172839506172839,39.32098765432099,0)" xlink:href="#n"/><use transform="matrix(0.06172839506172839,0,0,0.06172839506172839,51.666666666666664,0)" xlink:href="#q"/></g><g id="g"><use transform="matrix(0.06172839506172839,0,0,0.06172839506172839,0,0)" xlink:href="#y"/><use transform="matrix(0.06172839506172839,0,0,0.06172839506172839,18.456790123456788,0)" xlink:href="#n"/><use transform="matrix(0.06172839506172839,0,0,0.06172839506172839,30.80246913580247,0)" xlink:href="#v"/><use transform="matrix(0.06172839506172839,0,0,0.06172839506172839,43.148148148148145,0)" xlink:href="#q"/><use transform="matrix(0.06172839506172839,0,0,0.06172839506172839,55.49382716049382,0)" xlink:href="#o"/></g><path fill="#333" d="M137 0h-34L2-248h35l83 218 83-218h36" id="B"/><path fill="#333" d="M84 4C-5 8 30-112 23-190h32v120c0 31 7 50 39 49 72-2 45-101 50-169h31l1 190h-30c-1-10 1-25-2-33-11 22-28 36-60 37" id="C"/><g id="h"><use transform="matrix(0.06172839506172839,0,0,0.06172839506172839,0,0)" xlink:href="#B"/><use transform="matrix(0.06172839506172839,0,0,0.06172839506172839,13.148148148148147,0)" xlink:href="#v"/><use transform="matrix(0.06172839506172839,0,0,0.06172839506172839,25.493827160493826,0)" xlink:href="#u"/><use transform="matrix(0.06172839506172839,0,0,0.06172839506172839,30.370370370370367,0)" xlink:href="#C"/><use transform="matrix(0.06172839506172839,0,0,0.06172839506172839,42.716049382716044,0)" xlink:href="#n"/></g></defs></g></svg>