<svg xmlns="http://www.w3.org/2000/svg" width="40" zoomAndPan="magnify" viewBox="0 0 30 30.000001" height="40"
     preserveAspectRatio="xMidYMid meet" version="1.0">
    <defs>
        <g/>
        <clipPath id="id1">
            <path d="M 0.484375 0 L 29.515625 0 L 29.515625 29.03125 L 0.484375 29.03125 Z M 0.484375 0 "
                  clip-rule="nonzero"/>
        </clipPath>
        <clipPath id="id2">
            <path d="M 1 0 L 29.515625 0 L 29.515625 29.03125 L 1 29.03125 Z M 1 0 " clip-rule="nonzero"/>
        </clipPath>
    </defs>
    <g clip-path="url(#id1)">
        <path fill="rgb(100%, 100%, 100%)"
              d="M 0.484375 0 L 29.515625 0 L 29.515625 36.289062 L 0.484375 36.289062 Z M 0.484375 0 " fill-opacity="1"
              fill-rule="nonzero"/>
        <path fill="rgb(100%, 100%, 100%)"
              d="M 0.484375 0 L 29.515625 0 L 29.515625 29.03125 L 0.484375 29.03125 Z M 0.484375 0 " fill-opacity="1"
              fill-rule="nonzero"/>
        <path fill="rgb(20.388794%, 55.288696%, 85.879517%)"
              d="M 0.484375 0 L 29.515625 0 L 29.515625 29.03125 L 0.484375 29.03125 Z M 0.484375 0 " fill-opacity="1"
              fill-rule="nonzero"/>
    </g>
    <path fill="rgb(100%, 84.309387%, 0%)"
          d="M 25.917969 2.867188 C 26.460938 2.867188 26.910156 3.304688 26.910156 3.835938 L 26.910156 24.789062 C 26.910156 25.320312 26.460938 25.757812 25.917969 25.757812 L 4.324219 25.757812 C 3.78125 25.757812 3.332031 25.320312 3.332031 24.789062 L 3.332031 3.835938 C 3.332031 3.304688 3.78125 2.867188 4.324219 2.867188 L 25.917969 2.867188 M 25.917969 1.972656 L 4.324219 1.972656 C 3.277344 1.972656 2.417969 2.808594 2.417969 3.835938 L 2.417969 24.789062 C 2.417969 25.816406 3.277344 26.652344 4.324219 26.652344 L 25.917969 26.652344 C 26.96875 26.652344 27.824219 25.816406 27.824219 24.789062 L 27.824219 3.835938 C 27.824219 2.808594 26.96875 1.972656 25.917969 1.972656 "
          fill-opacity="1" fill-rule="nonzero"/>
    <g clip-path="url(#id2)">
        <g fill="rgb(100%, 84.309387%, 0%)" fill-opacity="1">
            <g transform="translate(16.656297, 29.635134)">
                <g>
                    <path d="M 1.902344 -8.0625 L 4.460938 -10.203125 L 2.667969 -12.292969 C 2.054688 -13.023438 2.585938 -14.085938 3.050781 -15.230469 C 3.976562 -17.511719 5.179688 -20.15625 2.519531 -23.339844 C -0.0351562 -26.394531 -4.863281 -27.1875 -9.039062 -23.695312 C -12.015625 -21.210938 -12.480469 -17.628906 -11.59375 -14.289062 L -8.554688 -14.792969 C -9.160156 -17.210938 -8.660156 -19.582031 -6.859375 -21.085938 C -4.40625 -23.136719 -1.671875 -22.675781 -0.316406 -21.058594 C 1.035156 -19.441406 0.519531 -17.988281 -0.0351562 -16.640625 L -0.0078125 -16.660156 C -0.957031 -14.453125 -1.847656 -12.550781 0.113281 -10.203125 Z M 3.808594 -8.328125 C 2.898438 -7.5625 2.753906 -6.25 3.605469 -5.230469 C 4.28125 -4.421875 5.734375 -4.171875 6.644531 -4.9375 C 7.664062 -5.785156 7.648438 -7.238281 6.972656 -8.046875 C 6.121094 -9.0625 4.828125 -9.179688 3.808594 -8.328125 Z M 3.808594 -8.328125 "/>
                </g>
            </g>
        </g>
    </g>
    <path fill="rgb(100%, 84.309387%, 0%)"
          d="M 8.824219 10.878906 L 12.453125 10.878906 L 12.453125 23.90625 L 8.824219 23.90625 L 8.824219 10.878906 "
          fill-opacity="1" fill-rule="nonzero"/>
</svg>
